<?xml version="1.0" encoding="utf-8"?>
<!-- Generator: Adobe Illustrator 19.1.0, SVG Export Plug-In . SVG Version: 6.00 Build 0)  -->
<svg version="1.1" id="Layer_1" xmlns="http://www.w3.org/2000/svg" xmlns:xlink="http://www.w3.org/1999/xlink" x="0px" y="0px"
	 viewBox="-319.5 241 247 260" style="enable-background:new -319.5 241 247 260;" xml:space="preserve">
<style type="text/css">
	.st0{fill:#FFFFFF;stroke:#000000;stroke-width:3;stroke-miterlimit:10;}
	.st1{fill:none;stroke:#000000;stroke-width:3;stroke-linejoin:bevel;stroke-miterlimit:10;}
	.st2{fill:#BA2600;stroke:#000000;stroke-width:3;stroke-miterlimit:10;}
</style>
<path class="st0" d="M-106.4,426.5C-100,420.3-96,411.6-96,402v-4c0-18.8-15.3-33.5-34.1-33.5h-9.7c6.1-7,6.8-15.8,6.8-25.2v-0.1
	c0-18.6-14.7-33.8-33.1-34.1c13.3-33.6-37.5-51.3-37.5-51.3c25.9,34.2-13.9,33.8-19.3,52.8h-2.6c-18.8,0-34.5,14-34.5,32.7v0.1
	c0,9.4,0.9,18.1,7.2,25.1h-9.1c-18.8,0-34.1,14.7-34.1,33.5v4c0,9.6,3.9,18.3,10.4,24.5c-16.1,2.7-28.4,16.7-28.4,33.5v4
	c0,18.8,15.5,34.5,34.2,34.5h167.5c18.8,0,34.2-15.7,34.2-34.5v-4C-78,443.2-90.3,429.2-106.4,426.5z"/>
<g>
	<g>
		<path class="st1" d="M-271.8,380.2c13.7,2.6,18.8,27,49,29.5c30.3,2.5,35.3-31.9,54.7-29.8c19.3,2.1,25.2,16.6,23.5,30
			c-1.7,13.3,19.3,20.3,16,0c-3.4-20.3,2.7-41.1,20.3-37.5c-6-4.9-13.6-7.9-22.1-7.9h-9.7c6.1-7,6.8-15.8,6.8-25.2v-0.1
			c0-18.6-14.7-33.8-33.1-34.1c13.3-33.6-37.5-51.3-37.5-51.3c25.9,34.2-13.9,33.8-19.3,52.8h-2.6c-18.8,0-34.5,14-34.5,32.7v0.1
			c0,9.4,0.9,18.1,7.2,25.1h-9.1c-16.4,0-29.8,10.9-33,26.3C-294.6,390.2-285.5,377.6-271.8,380.2z"/>
	</g>
</g>
<g>
	<path class="st0" d="M-263.1,421.5l20.4-39c1.1-2.1,3.7-2.9,5.9-1.8c2.2,1.1,2.9,3.7,1.8,5.9l-20.4,39c-1.1,2.1-3.7,2.9-5.9,1.8
		l0,0C-263.4,426.2-264.2,423.6-263.1,421.5z M-215.7,446.7l-38.8,20.7c-2.1,1.1-4.7,0.3-5.9-1.8c-1.1-2.1-0.3-4.7,1.8-5.9
		l38.9-20.6c2.1-1.1,4.7-0.3,5.9,1.8l0,0C-212.8,443-213.6,445.6-215.7,446.7z M-217.9,354.3c-2.2-1-3.2-3.5-2.2-5.7
		s3.5-3.2,5.7-2.2l40.3,17.7c2.2,1,3.2,3.5,2.2,5.7c-1,2.2-3.5,3.2-5.7,2.2L-217.9,354.3z M-142.9,481.7c-0.9,2.2-3.5,3.2-5.7,2.3
		l-40.4-17.4c-2.2-0.9-3.2-3.5-2.3-5.7c0.9-2.2,3.5-3.2,5.7-2.3l40.4,17.4C-143,477-142,479.5-142.9,481.7z M-130.9,396.8l-38.1,22
		c-2.1,1.2-4.7,0.5-5.9-1.6c-1.2-2.1-0.5-4.7,1.6-5.9l38.1-22c2.1-1.2,4.7-0.5,5.9,1.6C-128.1,393-128.9,395.6-130.9,396.8z"/>
	<path class="st0" d="M-135.3,389.3l-38.1,22c-2.1,1.2-2.8,3.8-1.6,5.9c1.2,2.1,3.8,2.8,5.9,1.6l38.1-22c2.1-1.2,2.8-3.8,1.6-5.9
		C-130.6,388.8-133.2,388.1-135.3,389.3z"/>
	<path class="st0" d="M-171.9,369.8c1-2.2,0-4.7-2.2-5.7l-40.3-17.7c-2.2-1-4.7,0-5.7,2.2s0,4.7,2.2,5.7l40.3,17.7
		C-175.4,373-172.8,372-171.9,369.8z"/>
	<path class="st0" d="M-255.5,425.5l20.4-39c1.1-2.1,0.3-4.7-1.8-5.9s-4.7-0.3-5.9,1.8l-20.4,39c-1.1,2.1-0.3,4.7,1.8,5.9l0,0
		C-259.2,428.4-256.6,427.6-255.5,425.5z"/>
	<path class="st0" d="M-120.7,443.5c-2.4-0.1-4.4,1.8-4.4,4.2c-0.1,2.4,1.8,4.4,4.2,4.4l42.2,1c-0.6-3.1-1.7-6-3.1-8.7L-120.7,443.5
		z"/>
	<path class="st0" d="M-293.2,471.9c0.1-2.4-1.8-4.4-4.2-4.4l-16.5-0.4c0.3,3,0.9,6,2,8.7l14.3,0.4
		C-295.2,476.2-293.2,474.3-293.2,471.9z"/>
	<path class="st0" d="M-277.8,386.8c0.1-2.4-1.8-4.4-4.2-4.4l-9.9-0.2c-1.5,2.7-2.5,5.5-3.2,8.6l12.9,0.3
		C-279.9,391.1-277.9,389.2-277.8,386.8z"/>
	<path class="st0" d="M-145.2,476l-40.4-17.4c-2.2-0.9-4.7,0.1-5.7,2.3c-0.9,2.2,0.1,4.7,2.3,5.7l40.4,17.4c2.2,0.9,4.7-0.1,5.7-2.3
		C-142,479.5-143,477-145.2,476z"/>
	<path class="st0" d="M-188.6,293.5L-188.6,293.5c1-2.2,0-4.7-2.2-5.7l-8.8-3.9c-2.1,2.2-4.8,4.2-7.5,6.2l12.9,5.6
		C-192.1,296.7-189.5,295.7-188.6,293.5z"/>
	<path class="st0" d="M-242.9,329.9c2-1.3,2.6-4,1.3-6l-6.3-9.7c-2.3,1.9-4.4,4-6.1,6.4l5.2,8C-247.5,330.6-244.9,331.2-242.9,329.9
		z"/>
	<path class="st0" d="M-154.4,332.4c2.2,0.9,4.7-0.3,5.6-2.5l5.8-15c-2.1-2.1-4.5-4-7.2-5.5l-6.7,17.4
		C-157.7,329-156.6,331.6-154.4,332.4z"/>
	<path class="st0" d="M-215.5,483.4c-2.2-0.9-4.7,0.3-5.6,2.5l-4.8,12.6h9.3l3.6-9.5C-212.1,486.8-213.2,484.3-215.5,483.4z"/>
	<path class="st0" d="M-213.9,440.9c-1.1-2.1-3.7-2.9-5.9-1.8l-38.9,20.6c-2.1,1.1-2.9,3.7-1.8,5.9c1.1,2.1,3.7,2.9,5.9,1.8
		l38.9-20.6C-213.6,445.6-212.8,443-213.9,440.9L-213.9,440.9z"/>
</g>
<g>
	<path class="st2" d="M-174.6,255.2c8.8,13.8,4.8,32.1-9,40.9c-13.8,8.8-32.1,4.8-40.9-9c-7.7-12-2.9-29.1,8.6-30.5
		c3-0.4,5.4-2.4,6.6-5.1C-204.3,240.3-182.3,243.1-174.6,255.2z"/>
</g>
</svg>
