<?xml version="1.0" encoding="utf-8"?>
<!-- Generator: Adobe Illustrator 19.1.0, SVG Export Plug-In . SVG Version: 6.00 Build 0)  -->
<svg version="1.1" id="Layer_1" xmlns="http://www.w3.org/2000/svg" xmlns:xlink="http://www.w3.org/1999/xlink" x="0px" y="0px"
	 viewBox="-196 111 247 260" style="enable-background:new -196 111 247 260;" xml:space="preserve">
<style type="text/css">
	.st0{fill:#FFFFFF;stroke:#000000;stroke-width:3;stroke-miterlimit:10;}
	.st1{fill:none;stroke:#000000;stroke-width:3;stroke-linejoin:bevel;stroke-miterlimit:10;}
	.st2{fill:#BA2600;stroke:#000000;stroke-width:3;stroke-miterlimit:10;}
</style>
<path class="st0" d="M17.1,296.5c6.4-6.2,10.4-14.9,10.4-24.5v-4c0-18.8-15.3-33.5-34.1-33.5h-9.7c6.1-7,6.8-15.8,6.8-25.2v-0.1
	c0-18.6-14.7-33.8-33.1-34.1c13.3-33.6-37.5-51.3-37.5-51.3c25.9,34.2-13.9,33.8-19.3,52.8h-2.6c-18.8,0-34.5,14-34.5,32.7v0.1
	c0,9.4,0.9,18.1,7.2,25.1h-9.1c-18.8,0-34.1,14.7-34.1,33.5v4c0,9.6,3.9,18.3,10.4,24.5c-16.1,2.7-28.4,16.7-28.4,33.5v4
	c0,18.8,15.5,34.5,34.2,34.5H11.2c18.8,0,34.2-15.7,34.2-34.5v-4C45.5,313.2,33.2,299.2,17.1,296.5z"/>
<g>
	<g>
		<path class="st1" d="M-148.3,250.2c13.7,2.6,18.8,27,49,29.5c30.3,2.5,35.3-31.9,54.7-29.8c19.3,2.1,25.2,16.6,23.5,30
			c-1.7,13.3,19.3,20.3,16,0c-3.4-20.3,2.7-41.1,20.3-37.5c-6-4.9-13.6-7.9-22.1-7.9h-9.7c6.1-7,6.8-15.8,6.8-25.2v-0.1
			c0-18.6-14.7-33.8-33.1-34.1c13.3-33.6-37.5-51.3-37.5-51.3c25.9,34.2-13.9,33.8-19.3,52.8h-2.6c-18.8,0-34.5,14-34.5,32.7v0.1
			c0,9.4,0.9,18.1,7.2,25.1h-9.1c-16.4,0-29.8,10.9-33,26.3C-171.1,260.2-162,247.6-148.3,250.2z"/>
	</g>
</g>
<g>
	<path class="st0" d="M-139.6,291.5l20.4-39c1.1-2.1,3.7-2.9,5.9-1.8s2.9,3.7,1.8,5.9l-20.4,39c-1.1,2.1-3.7,2.9-5.9,1.8l0,0
		C-139.9,296.2-140.7,293.6-139.6,291.5z M-92.2,316.7l-38.8,20.7c-2.1,1.1-4.7,0.3-5.9-1.8c-1.1-2.1-0.3-4.7,1.8-5.9l38.9-20.6
		c2.1-1.1,4.7-0.3,5.9,1.8l0,0C-89.3,313-90.1,315.6-92.2,316.7z M-94.4,224.3c-2.2-1-3.2-3.5-2.2-5.7s3.5-3.2,5.7-2.2l40.3,17.7
		c2.2,1,3.2,3.5,2.2,5.7s-3.5,3.2-5.7,2.2L-94.4,224.3z M-19.4,351.7c-0.9,2.2-3.5,3.2-5.7,2.3l-40.4-17.4c-2.2-0.9-3.2-3.5-2.3-5.7
		c0.9-2.2,3.5-3.2,5.7-2.3l40.4,17.4C-19.5,347-18.5,349.5-19.4,351.7z M-7.4,266.8l-38.1,22c-2.1,1.2-4.7,0.5-5.9-1.6
		c-1.2-2.1-0.5-4.7,1.6-5.9l38.1-22c2.1-1.2,4.7-0.5,5.9,1.6C-4.6,263-5.4,265.6-7.4,266.8z"/>
	<path class="st0" d="M-11.8,259.3l-38.1,22c-2.1,1.2-2.8,3.8-1.6,5.9c1.2,2.1,3.8,2.8,5.9,1.6l38.1-22c2.1-1.2,2.8-3.8,1.6-5.9
		C-7.1,258.8-9.7,258.1-11.8,259.3z"/>
	<path class="st0" d="M-48.4,239.8c1-2.2,0-4.7-2.2-5.7l-40.3-17.7c-2.2-1-4.7,0-5.7,2.2s0,4.7,2.2,5.7l40.3,17.7
		C-51.9,243-49.3,242-48.4,239.8z"/>
	<path class="st0" d="M-132,295.5l20.4-39c1.1-2.1,0.3-4.7-1.8-5.9s-4.7-0.3-5.9,1.8l-20.4,39c-1.1,2.1-0.3,4.7,1.8,5.9l0,0
		C-135.7,298.4-133.1,297.6-132,295.5z"/>
	<path class="st0" d="M2.8,313.5c-2.4-0.1-4.4,1.8-4.4,4.2c-0.1,2.4,1.8,4.4,4.2,4.4l42.2,1c-0.6-3.1-1.7-6-3.1-8.7L2.8,313.5z"/>
	<path class="st0" d="M-169.7,341.9c0.1-2.4-1.8-4.4-4.2-4.4l-16.5-0.4c0.3,3,0.9,6,2,8.7l14.3,0.4
		C-171.7,346.2-169.7,344.3-169.7,341.9z"/>
	<path class="st0" d="M-154.3,256.8c0.1-2.4-1.8-4.4-4.2-4.4l-9.9-0.2c-1.5,2.7-2.5,5.5-3.2,8.6l12.9,0.3
		C-156.4,261.1-154.4,259.2-154.3,256.8z"/>
	<path class="st0" d="M-21.7,346l-40.4-17.4c-2.2-0.9-4.7,0.1-5.7,2.3c-0.9,2.2,0.1,4.7,2.3,5.7l40.4,17.4c2.2,0.9,4.7-0.1,5.7-2.3
		C-18.5,349.5-19.5,347-21.7,346z"/>
	<path class="st0" d="M-65.1,163.5L-65.1,163.5c1-2.2,0-4.7-2.2-5.7l-8.8-3.9c-2.1,2.2-4.8,4.2-7.5,6.2l12.9,5.6
		C-68.6,166.7-66,165.7-65.1,163.5z"/>
	<path class="st0" d="M-119.4,199.9c2-1.3,2.6-4,1.3-6l-6.3-9.7c-2.3,1.9-4.4,4-6.1,6.4l5.2,8C-124,200.6-121.4,201.2-119.4,199.9z"
		/>
	<path class="st0" d="M-30.9,202.4c2.2,0.9,4.7-0.3,5.6-2.5l5.8-15c-2.1-2.1-4.5-4-7.2-5.5l-6.7,17.4
		C-34.2,199-33.1,201.6-30.9,202.4z"/>
	<path class="st0" d="M-92,353.4c-2.2-0.9-4.7,0.3-5.6,2.5l-4.8,12.6h9.3l3.6-9.5C-88.6,356.8-89.7,354.3-92,353.4z"/>
	<path class="st0" d="M-90.4,310.9c-1.1-2.1-3.7-2.9-5.9-1.8l-38.9,20.6c-2.1,1.1-2.9,3.7-1.8,5.9c1.1,2.1,3.7,2.9,5.9,1.8
		l38.9-20.6C-90.1,315.6-89.3,313-90.4,310.9L-90.4,310.9z"/>
</g>
<g>
	<path class="st2" d="M-51.1,125.2c8.8,13.8,4.8,32.1-9,40.9s-32.1,4.8-40.9-9c-7.7-12-2.9-29.1,8.6-30.5c3-0.4,5.4-2.4,6.6-5.1
		C-80.8,110.3-58.8,113.1-51.1,125.2z"/>
</g>
</svg>
