<?xml version="1.0" encoding="utf-8"?>
<!-- Generator: Adobe Illustrator 19.1.0, SVG Export Plug-In . SVG Version: 6.00 Build 0)  -->
<svg version="1.1" id="Layer_1" xmlns="http://www.w3.org/2000/svg" xmlns:xlink="http://www.w3.org/1999/xlink" x="0px" y="0px"
	 viewBox="0 0 247 260" style="enable-background:new 0 0 247 260;" xml:space="preserve">
<style type="text/css">
	.st0{fill:#FFFFFF;stroke:#000000;stroke-width:3;stroke-miterlimit:10;}
	.st1{fill:none;stroke:#000000;stroke-width:3;stroke-linejoin:bevel;stroke-miterlimit:10;}
	.st2{fill:#BA2600;stroke:#000000;stroke-width:3;stroke-miterlimit:10;}
</style>
<path class="st0" d="M213.1,186.5c6.4-6.2,10.4-14.9,10.4-24.5v-4c0-18.8-15.3-33.5-34.1-33.5h-9.7c6.1-7,6.8-15.8,6.8-25.2v-0.1
	c0-18.6-14.7-33.8-33.1-34.1c13.3-33.6-37.5-51.3-37.5-51.3C141.8,48,102,47.6,96.6,66.6H94c-18.8,0-34.5,14-34.5,32.7v0.1
	c0,9.4,0.9,18.1,7.2,25.1h-9.1c-18.8,0-34.1,14.7-34.1,33.5v4c0,9.6,3.9,18.3,10.4,24.5C17.8,189.2,5.5,203.2,5.5,220v4
	c0,18.8,15.5,34.5,34.2,34.5h167.5c18.8,0,34.2-15.7,34.2-34.5v-4C241.5,203.2,229.2,189.2,213.1,186.5z"/>
<g>
	<g>
		<path class="st1" d="M47.7,140.2c13.7,2.6,18.8,27,49,29.5c30.3,2.5,35.3-31.9,54.7-29.8c19.3,2.1,25.2,16.6,23.5,30
			c-1.7,13.3,19.3,20.3,16,0c-3.4-20.3,2.7-41.1,20.3-37.5c-6-4.9-13.6-7.9-22.1-7.9h-9.7c6.1-7,6.8-15.8,6.8-25.2v-0.1
			c0-18.6-14.7-33.8-33.1-34.1c13.3-33.6-37.5-51.3-37.5-51.3c25.9,34.2-13.9,33.8-19.3,52.8h-2.6c-18.8,0-34.5,14-34.5,32.7v0.1
			c0,9.4,0.9,18.1,7.2,25.1h-9.1c-16.4,0-29.8,10.9-33,26.3C24.9,150.2,34,137.6,47.7,140.2z"/>
	</g>
</g>
<g>
	<path class="st0" d="M56.4,181.5l20.4-39c1.1-2.1,3.7-2.9,5.9-1.8s2.9,3.7,1.8,5.9l-20.4,39c-1.1,2.1-3.7,2.9-5.9,1.8l0,0
		C56.1,186.2,55.3,183.6,56.4,181.5z M103.8,206.7L65,227.4c-2.1,1.1-4.7,0.3-5.9-1.8c-1.1-2.1-0.3-4.7,1.8-5.9l38.9-20.6
		c2.1-1.1,4.7-0.3,5.9,1.8l0,0C106.7,203,105.9,205.6,103.8,206.7z M101.6,114.3c-2.2-1-3.2-3.5-2.2-5.7s3.5-3.2,5.7-2.2l40.3,17.7
		c2.2,1,3.2,3.5,2.2,5.7s-3.5,3.2-5.7,2.2L101.6,114.3z M176.6,241.7c-0.9,2.2-3.5,3.2-5.7,2.3l-40.4-17.4c-2.2-0.9-3.2-3.5-2.3-5.7
		s3.5-3.2,5.7-2.3l40.4,17.4C176.5,237,177.5,239.5,176.6,241.7z M188.6,156.8l-38.1,22c-2.1,1.2-4.7,0.5-5.9-1.6s-0.5-4.7,1.6-5.9
		l38.1-22c2.1-1.2,4.7-0.5,5.9,1.6S190.6,155.6,188.6,156.8z"/>
	<path class="st0" d="M184.2,149.3l-38.1,22c-2.1,1.2-2.8,3.8-1.6,5.9s3.8,2.8,5.9,1.6l38.1-22c2.1-1.2,2.8-3.8,1.6-5.9
		S186.3,148.1,184.2,149.3z"/>
	<path class="st0" d="M147.6,129.8c1-2.2,0-4.7-2.2-5.7l-40.3-17.7c-2.2-1-4.7,0-5.7,2.2s0,4.7,2.2,5.7l40.3,17.7
		C144.1,133,146.7,132,147.6,129.8z"/>
	<path class="st0" d="M64,185.5l20.4-39c1.1-2.1,0.3-4.7-1.8-5.9s-4.7-0.3-5.9,1.8l-20.4,39c-1.1,2.1-0.3,4.7,1.8,5.9l0,0
		C60.3,188.4,62.9,187.6,64,185.5z"/>
	<path class="st0" d="M198.8,203.5c-2.4-0.1-4.4,1.8-4.4,4.2c-0.1,2.4,1.8,4.4,4.2,4.4l42.2,1c-0.6-3.1-1.7-6-3.1-8.7L198.8,203.5z"
		/>
	<path class="st0" d="M26.3,231.9c0.1-2.4-1.8-4.4-4.2-4.4l-16.5-0.4c0.3,3,0.9,6,2,8.7l14.3,0.4C24.3,236.2,26.3,234.3,26.3,231.9z
		"/>
	<path class="st0" d="M41.7,146.8c0.1-2.4-1.8-4.4-4.2-4.4l-9.9-0.2c-1.5,2.7-2.5,5.5-3.2,8.6l12.9,0.3
		C39.6,151.1,41.6,149.2,41.7,146.8z"/>
	<path class="st0" d="M174.3,236l-40.4-17.4c-2.2-0.9-4.7,0.1-5.7,2.3c-0.9,2.2,0.1,4.7,2.3,5.7l40.4,17.4c2.2,0.9,4.7-0.1,5.7-2.3
		C177.5,239.5,176.5,237,174.3,236z"/>
	<path class="st0" d="M130.9,53.5L130.9,53.5c1-2.2,0-4.7-2.2-5.7l-8.8-3.9c-2.1,2.2-4.8,4.2-7.5,6.2l12.9,5.6
		C127.4,56.7,130,55.7,130.9,53.5z"/>
	<path class="st0" d="M76.6,89.9c2-1.3,2.6-4,1.3-6l-6.3-9.7c-2.3,1.9-4.4,4-6.1,6.4l5.2,8C72,90.6,74.6,91.2,76.6,89.9z"/>
	<path class="st0" d="M165.1,92.4c2.2,0.9,4.7-0.3,5.6-2.5l5.8-15c-2.1-2.1-4.5-4-7.2-5.5l-6.7,17.4C161.8,89,162.9,91.6,165.1,92.4
		z"/>
	<path class="st0" d="M104,243.4c-2.2-0.9-4.7,0.3-5.6,2.5l-4.8,12.6h9.3l3.6-9.5C107.4,246.8,106.3,244.3,104,243.4z"/>
	<path class="st0" d="M105.6,200.9c-1.1-2.1-3.7-2.9-5.9-1.8l-38.9,20.6c-2.1,1.1-2.9,3.7-1.8,5.9c1.1,2.1,3.7,2.9,5.9,1.8
		l38.9-20.6C105.9,205.6,106.7,203,105.6,200.9L105.6,200.9z"/>
</g>
<g>
	<path class="st2" d="M144.9,15.2c8.8,13.8,4.8,32.1-9,40.9s-32.1,4.8-40.9-9c-7.7-12-2.9-29.1,8.6-30.5c3-0.4,5.4-2.4,6.6-5.1
		C115.2,0.3,137.2,3.1,144.9,15.2z"/>
</g>
</svg>
